{
	"asset":{
		"generator":"Khronos glTF Blender I/O v4.4.56",
		"version":"2.0"
	},
	"scene":0,
	"scenes":[
		{
			"name":"Scene",
			"nodes":[
				0
			]
		}
	],
	"nodes":[
		{
			"mesh":0,
			"name":"corps"
		}
	],
	"materials":[
		{
			"doubleSided":true,
			"name":"Material",
			"pbrMetallicRoughness":{
				"baseColorTexture":{
					"index":0
				},
				"metallicFactor":0,
				"roughnessFactor":0.5
			}
		},
		{
			"doubleSided":true,
			"name":"Material.001",
			"pbrMetallicRoughness":{
				"baseColorTexture":{
					"index":1
				},
				"metallicFactor":0,
				"roughnessFactor":0.5
			}
		},
		{
			"doubleSided":true,
			"name":"oeil",
			"pbrMetallicRoughness":{
				"baseColorTexture":{
					"index":2
				},
				"metallicFactor":0,
				"roughnessFactor":0.5
			}
		},
		{
			"doubleSided":true,
			"name":"Material.002",
			"pbrMetallicRoughness":{
				"baseColorTexture":{
					"index":3
				},
				"metallicFactor":0,
				"roughnessFactor":0.5
			}
		},
		{
			"doubleSided":true,
			"name":"Material.003",
			"pbrMetallicRoughness":{
				"baseColorTexture":{
					"index":4
				},
				"metallicFactor":0,
				"roughnessFactor":0.5
			}
		},
		{
			"doubleSided":true,
			"name":"Material.004",
			"pbrMetallicRoughness":{
				"baseColorTexture":{
					"index":5
				},
				"metallicFactor":0,
				"roughnessFactor":0.5
			}
		}
	],
	"meshes":[
		{
			"name":"Cube",
			"primitives":[
				{
					"attributes":{
						"POSITION":0,
						"NORMAL":1,
						"TEXCOORD_0":2
					},
					"indices":3,
					"material":0
				},
				{
					"attributes":{
						"POSITION":4,
						"NORMAL":5,
						"TEXCOORD_0":6
					},
					"indices":7,
					"material":1
				},
				{
					"attributes":{
						"POSITION":8,
						"NORMAL":9,
						"TEXCOORD_0":10
					},
					"indices":11,
					"material":2
				},
				{
					"attributes":{
						"POSITION":12,
						"NORMAL":13,
						"TEXCOORD_0":14
					},
					"indices":15,
					"material":3
				},
				{
					"attributes":{
						"POSITION":16,
						"NORMAL":17,
						"TEXCOORD_0":18
					},
					"indices":19,
					"material":4
				},
				{
					"attributes":{
						"POSITION":20,
						"NORMAL":21,
						"TEXCOORD_0":22
					},
					"indices":23,
					"material":5
				}
			]
		}
	],
	"textures":[
		{
			"sampler":0,
			"source":0
		},
		{
			"sampler":0,
			"source":1
		},
		{
			"sampler":0,
			"source":2
		},
		{
			"sampler":0,
			"source":3
		},
		{
			"sampler":0,
			"source":4
		},
		{
			"sampler":0,
			"source":5
		}
	],
	"images":[
		{
			"mimeType":"image/png",
			"name":"corps_text",
			"uri":"text_falc_8/corps_text.png"
		},
		{
			"mimeType":"image/png",
			"name":"ailes",
			"uri":"text_falc_8/ailes.png"
		},
		{
			"mimeType":"image/png",
			"name":"oeil",
			"uri":"text_falc_8/oeil.png"
		},
		{
			"mimeType":"image/png",
			"name":"sour",
			"uri":"text_falc_8/sour.png"
		},
		{
			"mimeType":"image/png",
			"name":"queue",
			"uri":"text_falc_8/queue.png"
		},
		{
			"mimeType":"image/png",
			"name":"cam",
			"uri":"text_falc_8/cam.png"
		}
	],
	"accessors":[
		{
			"bufferView":0,
			"componentType":5126,
			"count":22440,
			"max":[
				0.19303858280181885,
				0.3576834797859192,
				1.4317030906677246
			],
			"min":[
				-0.19303858280181885,
				-0.21153630316257477,
				-0.6104143261909485
			],
			"type":"VEC3"
		},
		{
			"bufferView":1,
			"componentType":5126,
			"count":22440,
			"type":"VEC3"
		},
		{
			"bufferView":2,
			"componentType":5126,
			"count":22440,
			"type":"VEC2"
		},
		{
			"bufferView":3,
			"componentType":5123,
			"count":132480,
			"type":"SCALAR"
		},
		{
			"bufferView":4,
			"componentType":5126,
			"count":6980,
			"max":[
				2.424426555633545,
				0.12524163722991943,
				1.1860966682434082
			],
			"min":[
				-2.424426317214966,
				0.0019629299640655518,
				0.36556342244148254
			],
			"type":"VEC3"
		},
		{
			"bufferView":5,
			"componentType":5126,
			"count":6980,
			"type":"VEC3"
		},
		{
			"bufferView":6,
			"componentType":5126,
			"count":6980,
			"type":"VEC2"
		},
		{
			"bufferView":7,
			"componentType":5123,
			"count":41856,
			"type":"SCALAR"
		},
		{
			"bufferView":8,
			"componentType":5126,
			"count":1118,
			"max":[
				0.12297943979501724,
				0.02744770422577858,
				1.3247054815292358
			],
			"min":[
				-0.12297946214675903,
				-0.050034038722515106,
				1.2473599910736084
			],
			"type":"VEC3"
		},
		{
			"bufferView":9,
			"componentType":5126,
			"count":1118,
			"type":"VEC3"
		},
		{
			"bufferView":10,
			"componentType":5126,
			"count":1118,
			"type":"VEC2"
		},
		{
			"bufferView":11,
			"componentType":5123,
			"count":5760,
			"type":"SCALAR"
		},
		{
			"bufferView":12,
			"componentType":5126,
			"count":722,
			"max":[
				0.12045540660619736,
				0.057857219129800797,
				1.3501402139663696
			],
			"min":[
				-0.12045539915561676,
				-0.018584661185741425,
				1.1584149599075317
			],
			"type":"VEC3"
		},
		{
			"bufferView":13,
			"componentType":5126,
			"count":722,
			"type":"VEC3"
		},
		{
			"bufferView":14,
			"componentType":5126,
			"count":722,
			"type":"VEC2"
		},
		{
			"bufferView":15,
			"componentType":5123,
			"count":3840,
			"type":"SCALAR"
		},
		{
			"bufferView":16,
			"componentType":5126,
			"count":736,
			"max":[
				0.27198171615600586,
				0.047173719853162766,
				0.09917424619197845
			],
			"min":[
				-0.2746581435203552,
				0.010507047176361084,
				-0.5727820992469788
			],
			"type":"VEC3"
		},
		{
			"bufferView":17,
			"componentType":5126,
			"count":736,
			"type":"VEC3"
		},
		{
			"bufferView":18,
			"componentType":5126,
			"count":736,
			"type":"VEC2"
		},
		{
			"bufferView":19,
			"componentType":5123,
			"count":1104,
			"type":"SCALAR"
		},
		{
			"bufferView":20,
			"componentType":5126,
			"count":728,
			"max":[
				0.053210824728012085,
				-0.07249459624290466,
				1.3111157417297363
			],
			"min":[
				-0.057241424918174744,
				-0.19793179631233215,
				1.1796170473098755
			],
			"type":"VEC3"
		},
		{
			"bufferView":21,
			"componentType":5126,
			"count":728,
			"type":"VEC3"
		},
		{
			"bufferView":22,
			"componentType":5126,
			"count":728,
			"type":"VEC2"
		},
		{
			"bufferView":23,
			"componentType":5123,
			"count":3252,
			"type":"SCALAR"
		}
	],
	"bufferViews":[
		{
			"buffer":0,
			"byteLength":269280,
			"byteOffset":0,
			"target":34962
		},
		{
			"buffer":0,
			"byteLength":269280,
			"byteOffset":269280,
			"target":34962
		},
		{
			"buffer":0,
			"byteLength":179520,
			"byteOffset":538560,
			"target":34962
		},
		{
			"buffer":0,
			"byteLength":264960,
			"byteOffset":718080,
			"target":34963
		},
		{
			"buffer":0,
			"byteLength":83760,
			"byteOffset":983040,
			"target":34962
		},
		{
			"buffer":0,
			"byteLength":83760,
			"byteOffset":1066800,
			"target":34962
		},
		{
			"buffer":0,
			"byteLength":55840,
			"byteOffset":1150560,
			"target":34962
		},
		{
			"buffer":0,
			"byteLength":83712,
			"byteOffset":1206400,
			"target":34963
		},
		{
			"buffer":0,
			"byteLength":13416,
			"byteOffset":1290112,
			"target":34962
		},
		{
			"buffer":0,
			"byteLength":13416,
			"byteOffset":1303528,
			"target":34962
		},
		{
			"buffer":0,
			"byteLength":8944,
			"byteOffset":1316944,
			"target":34962
		},
		{
			"buffer":0,
			"byteLength":11520,
			"byteOffset":1325888,
			"target":34963
		},
		{
			"buffer":0,
			"byteLength":8664,
			"byteOffset":1337408,
			"target":34962
		},
		{
			"buffer":0,
			"byteLength":8664,
			"byteOffset":1346072,
			"target":34962
		},
		{
			"buffer":0,
			"byteLength":5776,
			"byteOffset":1354736,
			"target":34962
		},
		{
			"buffer":0,
			"byteLength":7680,
			"byteOffset":1360512,
			"target":34963
		},
		{
			"buffer":0,
			"byteLength":8832,
			"byteOffset":1368192,
			"target":34962
		},
		{
			"buffer":0,
			"byteLength":8832,
			"byteOffset":1377024,
			"target":34962
		},
		{
			"buffer":0,
			"byteLength":5888,
			"byteOffset":1385856,
			"target":34962
		},
		{
			"buffer":0,
			"byteLength":2208,
			"byteOffset":1391744,
			"target":34963
		},
		{
			"buffer":0,
			"byteLength":8736,
			"byteOffset":1393952,
			"target":34962
		},
		{
			"buffer":0,
			"byteLength":8736,
			"byteOffset":1402688,
			"target":34962
		},
		{
			"buffer":0,
			"byteLength":5824,
			"byteOffset":1411424,
			"target":34962
		},
		{
			"buffer":0,
			"byteLength":6504,
			"byteOffset":1417248,
			"target":34963
		}
	],
	"samplers":[
		{
			"magFilter":9729,
			"minFilter":9987
		}
	],
	"buffers":[
		{
			"byteLength":1423752,
			"uri":"falcon8.bin"
		}
	]
}
